<svg xmlns="http://www.w3.org/2000/svg" height="150.85" width="191.911" xmlns:v="https://vecta.io/nano"><defs><clipPath id="A"><path d="M0 226.772h340.157V0H0z"/></clipPath></defs><g clip-path="url(#A)" transform="matrix(4.348564 0 0 -4.348563 -1013.9741 588.34064)" fill-rule="evenodd"><path d="M243.818 110.312h-6.566-.011a.93.93 0 0 1-.93-.935v-.006-4.693h.002l-.002-.004c0-.514.414-.937.93-.937h.011.68 5.886v-3.131h-8.207v.008c-1.343 0-2.429 1.086-2.429 2.425v7.98c0 1.332 1.086 2.418 2.429 2.418h8.207zm2.375 8.714a2.46 2.46 0 0 0-2.462-2.463h-10.556v3.173h8.89.01c.524 0 .944.428.944.949v.006 10.475.007c0 .523-.42.947-.944.947h-.01-4.763-.01c-.523 0-.944-.424-.944-.947v-.007-4.76-.006c0-.524.421-.949.944-.949h.01 3.811v-3.173h-5.477a2.46 2.46 0 0 0-2.461 2.461v8.094a2.46 2.46 0 0 0 2.461 2.462h8.095c1.359 0 2.462-1.102 2.462-2.462zm31.105-18.412h-3.128v9.698h-2.188-.01a.93.93 0 0 1-.931-.935v-.006-8.757h-3.128v9.698h-2.193-.006a.93.93 0 0 1-.932-.935v-.006-8.765h-3.127v10.413c0 1.332 1.083 2.418 2.426 2.418h13.217zm.009 18.412a2.46 2.46 0 0 0-2.461-2.463h-10.557v3.173h8.894.006a.95.95 0 0 1 .948.949v.006 10.475.007c0 .523-.422.947-.948.947h-.006-4.767-.009c-.518 0-.941-.424-.941-.947v-.007-4.76-.006c0-.524.423-.949.941-.949h.009 3.81v-3.173h-5.474a2.46 2.46 0 0 0-2.463 2.461v8.094a2.46 2.46 0 0 0 2.463 2.462h8.094c1.357 0 2.461-1.102 2.461-2.462zm-18.738 12.14v-4.759-.006c0-.524-.411-.95-.936-.95h-.011-4.763-.007c-.525 0-.945.426-.945.95v.006 4.759.008c0 .523.42.946.945.946h.007 4.763.011c.525 0 .936-.423.936-.946zm.721 4.129h-8.098a2.46 2.46 0 0 1-2.459-2.462v-8.094a2.46 2.46 0 0 1 2.459-2.461h8.098a2.46 2.46 0 0 1 2.46 2.461v8.094c0 1.36-1.104 2.462-2.46 2.462m-3.268-25.924v-4.693c0-.516-.414-.937-.928-.937h-.011-4.692v.005c-.526-.005-.94.416-.94.932v4.693.006a.93.93 0 0 0 .93.935h.01 4.692.011a.93.93 0 0 0 .928-.935zm.703 4.066h-7.976c-1.343 0-2.427-1.086-2.427-2.418v-7.98c0-1.339 1.084-2.425 2.427-2.425h7.976c1.338 0 2.424 1.086 2.424 2.425v7.98c0 1.332-1.086 2.418-2.424 2.418"/></g></svg>