<svg xmlns="http://www.w3.org/2000/svg" width="30" height="30" fill="none" xmlns:v="https://vecta.io/nano"><path d="M26.309 13.219s2.442.125 2.442-1.344c0-1.875-3.279-3.606-3.279-3.606l.837-1.7a24.04 24.04 0 0 0 1.305-3.531c.1-.687-.056-.9-.056-.9-.225 1.463-2.604 5.681-2.791 5.825-1.763-.729-3.622-1.199-5.52-1.394 0 0-3.104-6.569-6.045-6.569s-2.904 5.625-2.904 5.625-.824-1.6-1.873-1.6C6.914 4.025 6.42 6.319 6.42 8.8a23.27 23.27 0 0 0-5.72.731c-.225.063-.93.575-.624.512 2.1-.46 4.257-.612 6.401-.45.15 2.356 1.53 5.425 1.53 5.425s-2.922 4.287-2.922 7.344c0 .806.35 2.275 2.498 2.275a9.68 9.68 0 0 0 4.14-1.288c-.326.537-.521 1.143-.568 1.769 0 .338.2 1.288 1.567 1.288 1.755 0 3.716-1.35 3.716-1.35s1.873 3.081 3.441 4.494c.234.218.52.373.831.45 0 0-1.574-1.519-3.647-5.425 1.93-1.187 3.934-4 3.934-4h2.067c2.866 0 6.938-.625 6.938-2.881s-3.691-4.475-3.691-4.475zm.319-1.413c.006.107-.01.214-.047.315s-.095.192-.17.269-.164.138-.263.178-.206.06-.313.057l-.624.044s-1.143-.625-1.83-.881l1.318-2.119c.219.113 1.93 1.181 1.93 2.137zm-11.99-8.487c1.343 0 3.266 3.181 3.266 3.181-1.898-.117-3.791.294-5.47 1.188.081-2.294.837-4.369 2.204-4.369zM9.299 5.9c.425 0 .843.519 1.018.963 0 .294.15 1.994.15 1.994l-2.498-.094c0-2.231.874-2.862 1.305-2.862zm-.256 15.506c-1.349 0-1.63-.756-1.63-1.437 0-1.531 1.249-3.681 1.249-3.681s1.374 2.887 3.747 4.113c-1.004.648-2.171.997-3.366 1.006zm4.371 3.025c-.949 0-1.068-.625-1.068-.756a2.15 2.15 0 0 1 .344-.962l1.698-1.194 1.193 2.231a5.31 5.31 0 0 1-2.148.681zm2.954-1.2a19.16 19.16 0 0 1-.999-2.062s2.367.15 3.641-1.163a7.06 7.06 0 0 1-3.528.669c2.371-1.998 4.517-4.249 6.401-6.712-.307-.274-.642-.515-.999-.719-.874 1.131-4.471 4.919-7.743 6.8-4.178-2.275-5.052-8.987-5.146-10.381l2.285.219a6.88 6.88 0 0 0-.887 2.619c0 1.119.137 1.181.137 1.181.021-1.248.432-2.459 1.174-3.462.918 4.888 1.873 7.394 2.617 8.881.381-.156 1.087-.469 1.087-.469s-2.104-6.081-1.986-10.2c1.22-.657 2.58-1.011 3.965-1.031 2.629.035 5.218.652 7.581 1.806l-1.324 1.875s-1.174-2.137-2.841-2.5c1.028.69 1.848 1.647 2.373 2.769-2.921-1.079-5.951-1.838-9.036-2.262-.076.399-.109.806-.1 1.213 0 0 5.62 1.044 9.742 3.394-.031 5.131-5.62 9.081-6.395 9.537zm5.358-3.856c1.096-1.569 1.696-3.43 1.724-5.344 0 0 2.804 1.769 2.804 3.469 0 1.919-4.527 1.875-4.527 1.875z" fill="#000"/></svg>