<svg xmlns="http://www.w3.org/2000/svg" width="29" height="21" fill="#000" fill-rule="evenodd" xmlns:v="https://vecta.io/nano"><path d="M22.857 0c-3.374 0-6.127 2.762-6.153 6.167l-3.832 5.559c-1.069-.098-1.991.126-2.806.629L.917 7.915c-2.063 3.102 0 6.203 0 6.203l7.005 3.218C8.37 19.426 10.217 21 12.402 21c2.376 0 4.345-1.847 4.561-4.199l5.899-4.363c3.384 0 6.137-2.777 6.137-6.221l-.001-.001C28.999 2.788 26.246 0 22.857 0zM12.402 19.763c-1.297 0-2.413-.738-2.98-1.815l1.657.667c1.377.574 2.942-.11 3.492-1.504a2.72 2.72 0 0 0-1.494-3.526l-1.404-.574a3.27 3.27 0 0 1 .729-.082c1.873 0 3.373 1.519 3.373 3.416s-1.5 3.417-3.373 3.417zm10.461-9.379c-2.278 0-4.129-1.859-4.129-4.166 0-2.297 1.846-4.166 4.129-4.166 2.262 0 4.113 1.87 4.113 4.166 0 2.313-1.852 4.172-4.113 4.166zm.011-7.51c-1.819 0-3.292 1.493-3.292 3.334s1.468 3.334 3.292 3.334c1.808 0 3.292-1.487 3.292-3.334s-1.484-3.334-3.292-3.334z"/></svg>