<svg xmlns="http://www.w3.org/2000/svg" width="30" height="30" fill="none" xmlns:v="https://vecta.io/nano"><path d="M14.069 0C4.434 0 .275 8.29.275 8.29l1.224.847s-1.54 2.832-1.499 6.464C.001 23.015 6.107 30 15.094 30 23.258 30 30 23.576 30 15.619 30.002 5.242 21.679 0 14.069 0zm.084 2.53c7.526 0 13.366 5.864 13.366 12.68 0 7.226-5.622 12.25-12.172 12.25-4.821 0-9.171-3.549-9.171-8.416 0-2.811 1.546-4.77 3.277-5.814l.253.266c-.474.36-1.825 2.457-1.825 4.519 0 3.828 3.106 6.481 7.019 6.481 4.984 0 8.309-4.11 8.309-8.883 0-5.552-5.07-10.268-11.171-10.268-3.374 0-6.238 1.403-7.884 2.642l-.256-.225C6.049 4.555 9.778 2.53 14.15 2.53h.002zm-2.246 5.314c3.893 0 7.695 2.49 8.643 6.025l-.345.126c-1.704-2.175-4.495-3.977-7.791-3.977-6.066 0-9.251 5.329-8.784 9.779l-.357.127s-.672-1.431-.672-3.125c0-4.909 4.169-8.956 9.304-8.956l.002.001zm2.573 6.159c1.841-.002 3.315 1.444 3.315 3.156 0 1.419-.942 2.26-.942 2.26l1.118.754s-1.107 1.681-3.368 1.681c-2.161 0-4.072-1.687-4.072-3.954 0-2.337 2.079-3.899 3.947-3.899l.002.002z" fill="#000"/></svg>