<svg xmlns="http://www.w3.org/2000/svg" width="24" height="30" fill="none" xmlns:v="https://vecta.io/nano"><path d="M9.082 20.379l-.018-.043-.013-.043-.017-.047-.017-.043-.013-.043-.018-.043-.017-.048-.013-.043-.018-.043-.017-.043-.013-.043-.018-.048-.013-.043-.018-.044-.018-.043-.013-.043-.018-.048-.017-.043-.013-.043-.018-.043-.017-.048-.013-.043-.018-.043-.017.043-.013.043-.018.048-.017.043-.013.043-.017.043-.018.048-.017.043-.013.043-.018.044-.018.043-.013.048-.036.086-.013.043-.018.043-.018.048-.017.043-.013.043-.018.043-.018.047-.013.043-.017.043h.746z" fill="#e4dfde"/><path d="M10.868 9.097V6.205c0-.46-.197-.674-.607-.674h-.667v4.24h.667c.41 0 .607-.214.607-.674zM8.354 20.336l.013-.043.018-.047.018-.043.013-.043.017-.043.018-.048.018-.043.013-.043.036-.086.013-.048.018-.043.018-.044.013-.043.017-.043.018-.048.017-.043.013-.043.017-.043.018-.048.013-.043.017-.043.018.043.013.043.017.048.018.043.013.043.017.043.018.048.013.043.018.043.018.044.013.043.018.048.013.043.017.043.018.043.013.043.017.048.018.043.013.043.017.043.017.047.013.043.018.043h-.746l.017-.043zM21.821 0H2.18C.587 0 0 .633 0 2.349V23.05l.023.541c.037.375.043.737.366 1.151.032.04.362.305.362.305l.499.25 9.671 4.366c.502.248.712.344 1.075.337H12c.364.008.575-.089 1.075-.337l9.674-4.365c.2-.087.322-.156.499-.25l.362-.305c.323-.413.33-.776.366-1.15l.023-.541V2.349C24 .633 23.412 0 21.821 0zm-8.596 3.987h1.625v11.502h-1.625V3.987zm-.708 15.635l.022.038.022-.038.022-.043.026-.04.022-.043.022-.04.022-.043.026-.04.022-.043.022-.04.022-.038.027-.043.022-.04.022-.043.022-.04.026-.043.022-.04.022-.043.022-.04.022-.04.026-.043.022-.038.022-.043.022-.04.027-.042.022-.04.022-.04.022-.043.026-.038.022-.043.022-.04.022-.043.027-.038.022-.043.022-.038h.905v3.476h-.853l.001-2.033-.022.038-.026.044-.022.038-.027.04-.022.043-.027.04-.022.04-.022.043-.026.04-.022.038-.027.04-.022.043-.027.04-.022.04-.022.043-.026.04-.022.04-.027.043-.022.04-.027.04-.022.043-.022.04-.026.04-.022.043-.027.04-.022.04-.027.04-.022.043-.022.04-.026.04-.022.043-.026.038-.022.04-.026.043-.022.04h-.017l-.027-.043-.022-.04-.027-.043-.022-.04-.026-.043-.022-.04-.026-.043-.022-.04-.027-.043-.022-.04-.026-.043-.022-.04-.027-.043-.022-.04-.026-.043-.022-.04-.026-.043-.026-.04-.022-.043-.026-.04-.022-.043-.026-.04-.022-.043-.026-.04-.022-.043-.026-.038-.022-.043-.027-.04-.022-.043-.027-.04-.022-.043-.026-.038-.022-.044-.026-.04v2.046h-.838V18.3h.905l.022.038.022.043.026.038.022.043.022.04.022.043.022.038.027.043.022.04.022.04.022.042.022.04.026.043.022.038.022.043.022.04.027.04.022.043.022.04.022.043.022.04.027.043.022.04.022.043.022.038.022.04.027.043.022.04.022.043.022.04.022.043.026.04.022.013zM7.968 3.987h2.55c1.321 0 1.974.706 1.974 2.136v3.056c0 1.43-.653 2.136-1.974 2.136h-.927v4.174H7.967l.001-11.502zm-4.428 0h3.613V5.58H5.165v3.254h1.913v1.592H5.165v3.469h2.019v1.592H3.541v-11.5zm3.074 17.309l-.031.029-.037.028-.031.024-.035.029-.035.024-.037.028-.037.024-.035.024-.04.024-.04.023-.04.024-.04.019-.04.024-.044.019-.04.019-.045.019-.04.019-.119.043-.044.014-.04.014-.044.01-.04.01-.044.009-.045.01-.044.005-.049.005-.044.005-.049.005-.044.005-.049.005h-.19l-.044-.005-.049-.005-.088-.01-.045-.005-.088-.019-.039-.009-.045-.01-.04-.014-.044-.01-.04-.014-.04-.019-.04-.014-.044-.019-.04-.019-.079-.038-.04-.024-.037-.024-.04-.024-.035-.023-.037-.024-.037-.029-.035-.028-.037-.029-.062-.058-.031-.033-.031-.029-.062-.067-.026-.034-.026-.04-.027-.033-.022-.04-.026-.04-.022-.04-.022-.04-.01-.035-.022-.04-.017-.041-.018-.043-.018-.043-.017-.043-.013-.038-.018-.043-.009-.043-.013-.043-.009-.047-.013-.043-.007-.047-.006-.043-.009-.048-.004-.043-.004-.048-.004-.047-.004-.048v-.157l.004-.053v-.047l.009-.1.009-.047.004-.048.009-.043.013-.048.009-.048.013-.043.013-.048.013-.043.018-.048.017-.043.018-.043.018-.043.017-.043.022-.043.022-.038.022-.041.022-.038.022-.04.026-.04.027-.038.026-.04.026-.034.031-.033.027-.034.031-.034.031-.033.031-.029.037-.034.031-.028.037-.029.037-.024.037-.029.037-.024.035-.024.04-.024.04-.024.04-.024.079-.038.044-.024.037-.014.044-.014.04-.019.04-.01.04-.014.045-.01.039-.014.044-.01.044-.005.044-.009.177-.019h.19l.097.01h.035l.044.005.049.01.04.005.088.019.119.029.04.014.04.009.035.014.04.014.079.038.04.019.04.024.039.019.037.024.04.024.037.024.04.024.035.029.037.024.037.029.035.028.035.034.037.029-.026.038-.031.034-.027.04-.031.038-.027.04-.026.033-.031.04-.026.04-.027.034-.031.038-.027.04-.031.038-.027.034-.026.04-.031.038-.026.04-.031.034-.026.038-.037-.029-.035-.033-.035-.024-.037-.029-.035-.024-.037-.024-.035-.024-.045-.028-.035-.02-.036-.018-.036-.014-.04-.014-.039-.014-.04-.01-.088-.019-.044-.005-.05-.006-.049-.004h-.092l-.044.004-.04.005-.044.01-.04.01-.079.029-.04.019-.04.019-.07.048-.037.024-.031.029-.031.028-.031.029-.026.034-.031.033-.027.04-.022.034-.022.038-.022.043-.022.038-.017.043-.013.043-.017.043-.013.048-.009.047-.009.043-.009.053-.004.047-.004.048v.11l.004.048.004.043.004.048.018.086.009.043.013.043.013.038.018.048.017.043.022.043.045.08.026.04.027.034.031.033.026.034.031.029.037.028.035.029.037.024.035.024.04.019.04.019.04.019.044.014.044.014.045.01.044.01.044.005.048.005h.102l.097-.01.044-.005.088-.019.044-.014.04-.01.04-.019.037-.019.04-.019.031-.019.035-.024v-.44h-.646v-.697h1.456v1.552zm.327.473l.036-.086.017-.043.017-.048.013-.043.018-.043.018-.043.017-.043.018-.043.018-.047.017-.043.018-.043.013-.043.018-.043.017-.043.018-.048.018-.043.017-.043.018-.043.018-.043.013-.043.017-.048.017-.043.018-.043.017-.043.018-.043.018-.043.017-.048.013-.043.018-.043.018-.043.017-.043.018-.043.017-.047.018-.043.017-.043.013-.043.018-.043.017-.043.018-.048.018-.043.017-.043.018-.043.017-.043.013-.043.018-.042.017-.048.018-.043.017-.043.018-.043.018-.043.017-.043.013-.047.018-.043.017-.043.018-.043.017-.043.018-.043.017-.048.018-.043.013-.043.018-.043.017-.043.018-.043.018-.048.017-.043.017-.043.018-.043.013-.043.018-.043.018-.048.018-.043.017-.043.018-.043.018-.043.017-.043.013-.048.017-.043.018-.043.017-.043h.817l.018.043.018.043.017.043.017.048.013.043.017.043.036.086.018.043.017.048.018.043.018.043.013.043.018.043.017.043.018.048.019.045.018.043.018.043.017.043.013.043.018.048.017.043.018.043.017.043.018.043.017.043.018.047.013.043.017.043.036.086.018.043.017.048.018.042.017.043.013.043.017.043.018.043.017.043.018.048.018.043.018.043.017.043.013.043.017.043.018.047.017.043.018.043.018.043.017.043.018.043.013.048.018.043.036.086.017.043.018.043.017.048.018.043.013.043.036.086.017.043.018.048.018.043.018.043.018.043.013.043.017.043.018.048.018.043.018.043.017.043.036.085.013.048.017.043.018.043.017.043h-.911l-.018-.043-.013-.043-.017-.043-.018-.048-.013-.043-.018-.043-.018-.043-.013-.044-.018-.043-.018-.043-.013-.043-.018-.047-.018-.043-.013-.043-.018-.043H8.076l-.017.043-.012.043-.037.091-.013.043-.018.043-.018.043-.013.043-.017.043-.018.043-.013.044-.018.047-.017.043-.013.043-.018.043h-.891zm4.983 5.807L7.372 25.89h9.299l-4.746 1.686zm5.529-5.807H14.88v-3.476h2.551v.788h-1.708v.568h1.536v.74h-1.536v.592h1.73v.788zm-1.746-8.317V6.024c0-1.43.653-2.136 1.974-2.136h.79c1.321 0 1.958.69 1.958 2.12v2.35h-1.595V6.106c0-.46-.197-.674-.607-.674h-.273c-.425 0-.623.213-.623.674v7.263c0 .46.198.674.623.674h.304c.408 0 .607-.214.607-.674v-2.597h1.595v2.678c0 1.43-.653 2.136-1.973 2.136h-.805c-1.321 0-1.974-.706-1.974-2.136zm4.8 7.247v.062l-.004.053-.005.047-.004.053-.009.047-.013.048-.009.043-.013.048-.017.043-.018.04-.017.043-.044.08-.026.04-.022.04-.026.034-.031.034-.026.028-.037.034-.031.029-.037.028-.035.024-.037.029-.04.024-.04.019-.04.023-.088.038-.088.029-.04.014-.044.01-.04.01-.04.009-.044.01-.044.005-.04.005-.044.005-.048.005-.044.005h-.186l-.044-.005h-.049l-.088-.01-.049-.005-.044-.01-.044-.005-.044-.009-.038-.02-.044-.008-.044-.01-.044-.014-.04-.01-.088-.029-.04-.019-.044-.014-.04-.014-.044-.019-.04-.019-.04-.019-.039-.024-.04-.019-.04-.021-.035-.024-.04-.024-.035-.024-.037-.024-.07-.057-.037-.029-.035-.028-.031-.029-.037-.034.027-.04.031-.034.026-.04.031-.04.026-.034.026-.04.031-.04.026-.034.031-.04.026-.034.031-.04.026-.04.027-.034.031-.04.027-.04.031-.034.026-.04.035.029.04.029.037.029.04.028.035.024.04.029.035.024.04.019.035.024.119.058.04.014.04.019.044.014.044.014.04.014.044.01.044.009.044.01.049.005.044.009h.044l.049.005h.097l.049-.005.044-.009.079-.019.037-.014.031-.019.035-.029.026-.033.018-.04.013-.043.005-.048v-.009l-.005-.058-.018-.047-.022-.034-.031-.028-.035-.029-.037-.019-.04-.019-.045-.019-.053-.024-.031-.01-.035-.01-.04-.014-.04-.01-.044-.014-.044-.01-.049-.014-.044-.009-.048-.014-.044-.01-.044-.014-.044-.01-.044-.014-.04-.014-.044-.01-.04-.014-.04-.014-.04-.014-.049-.019-.088-.038-.04.002-.04-.024-.044-.024-.037-.024-.04-.024-.035-.028-.035-.024-.031-.029-.031-.033-.031-.034-.027-.034-.026-.034-.022-.033-.021-.04-.022-.043-.018-.033-.014-.039-.013-.043-.013-.038-.009-.048-.009-.043-.009-.096-.004-.053v-.11l.004-.048.005-.043.004-.048.009-.043.009-.043.013-.043.009-.043.017-.043.018-.043.018-.043.044-.086.026-.038.027-.04.031-.04.031-.033.031-.04.037-.034.067-.052.035-.029.035-.024.04-.024.039-.019.04-.024.04-.019.044-.014.044-.019.04-.014.035-.01.04-.01.04-.01.044-.01.04-.01.176-.019h.19l.097.01h.044l.048.005.044.009.049.005.044.01.04.01.088.019.04.01.044.014.04.014.04.01.044.019.04.014.079.038.044.019.04.024.035.019.04.024.04.024.035.024.04.029.035.024.037.029.037.028.035.029-.026.04-.022.038-.026.04-.027.04-.026.043-.022.04-.027.038-.026.04-.022.04-.026.038-.027.04-.022.04-.026.043-.027.04-.026.038-.022.04-.026.038-.037-.028-.039-.024-.037-.024-.035-.028-.04-.019-.037-.024-.039-.019-.037-.019-.037-.03-.037-.019-.04-.014-.035-.019-.049-.014-.044-.014-.044-.014-.132-.029-.088-.01-.04-.005h-.097l-.049.01-.044.01-.04.01-.035.019-.031.019-.039.04-.026.043-.017.043-.005.048v.01l.005.062.022.052.017.029.031.034.04.024.035.023.044.019.049.019.053.019.037.009.035.014.04.01.04.014.044.01.049.014.048.014.049.014.049.01.044.014.049.014.044.01.088.029.04.014.044.014.04.014.04.014.049.019.044.024.044.019.044.024.04.024.04.024.035.024.037.029.037.024.035.033.037.034.03.04.031.033.026.04.027.043.022.038.022.043.018.038.013.043.013.043.008.043.009.048.009.048.005.048.004.052-.009.047z" fill="#000"/></svg>