<svg xmlns="http://www.w3.org/2000/svg" width="30" height="30" fill="none" xmlns:v="https://vecta.io/nano"><path d="M30 19.462h-6.475l-1.027-6.369-3.794 6.325h-.709c-.431-.732-.601-1.804-.601-2.46l.08-3.53c0-1.832-.546-2.815-2.002-3.16v-.055c3.097-.425 4.501-2.446 4.501-5.292C19.972.877 17.246 0 13.674 0H4.061L0 18.98h5.108l1.479-6.906h3.395c1.811 0 2.552.875 2.552 2.548l-.134 3.262c0 .362.083 1.205.332 1.532-.003 0 3.692 3.845 3.692 3.845L13.246 30l6.794-3.983 5.063 3.838-.945-6.359L30 19.462zM11.507 8.521h-4.06l.973-4.575h3.777c1.345 0 2.743.345 2.743 1.969 0 2.046-1.593 2.606-3.434 2.606z" fill="#000"/></svg>