<?xml version="1.0" encoding="UTF-8" standalone="no"?>
<svg
   xmlns:dc="http://purl.org/dc/elements/1.1/"
   xmlns:cc="http://creativecommons.org/ns#"
   xmlns:rdf="http://www.w3.org/1999/02/22-rdf-syntax-ns#"
   xmlns:svg="http://www.w3.org/2000/svg"
   xmlns="http://www.w3.org/2000/svg"
   xmlns:sodipodi="http://sodipodi.sourceforge.net/DTD/sodipodi-0.dtd"
   xmlns:inkscape="http://www.inkscape.org/namespaces/inkscape"
   viewBox="0 0 279.965 88.473"
   width="279.965"
   height="88.473"
   version="1.1"
   id="svg20"
   sodipodi:docname="pc-steam-gift.svg"
   inkscape:version="0.92.5 (2060ec1f9f, 2020-04-08)">
  <metadata
     id="metadata26">
    <rdf:RDF>
      <cc:Work
         rdf:about="">
        <dc:format>image/svg+xml</dc:format>
        <dc:type
           rdf:resource="http://purl.org/dc/dcmitype/StillImage" />
      </cc:Work>
    </rdf:RDF>
  </metadata>
  <defs
     id="defs24" />
  <sodipodi:namedview
     pagecolor="#ffffff"
     bordercolor="#666666"
     borderopacity="1"
     objecttolerance="10"
     gridtolerance="10"
     guidetolerance="10"
     inkscape:pageopacity="0"
     inkscape:pageshadow="2"
     inkscape:window-width="1770"
     inkscape:window-height="1011"
     id="namedview22"
     showgrid="false"
     inkscape:zoom="1.6922936"
     inkscape:cx="90.631529"
     inkscape:cy="31.182701"
     inkscape:window-x="0"
     inkscape:window-y="26"
     inkscape:window-maximized="0"
     inkscape:current-layer="svg20" />
  <path
     d="M 44.084,0 C 20.846,0 1.809,17.918 0,40.689 l 23.71,9.803 c 2.009,-1.374 4.436,-2.179 7.047,-2.179 0.234,0 0.467,0.01 0.698,0.021 L 41.999,33.051 c 0,-0.073 0,-0.144 0,-0.216 0,-9.199 7.483,-16.683 16.683,-16.683 9.199,0 16.682,7.484 16.682,16.683 0,9.199 -7.483,16.684 -16.682,16.684 -0.127,0 -0.253,0 -0.379,-0.01 l -15.038,10.73 c 0.01,0.195 0.015,0.394 0.015,0.592 0,6.906 -5.617,12.522 -12.522,12.522 -6.061,0 -11.129,-4.326 -12.277,-10.055 L 1.524,56.292 c 5.25,18.568 22.309,32.181 42.56,32.181 24.432,0 44.237,-19.806 44.237,-44.235 C 88.321,19.805 68.515,0 44.084,0"
     id="path2"
     style="fill:#ffffff;fill-opacity:1"
     inkscape:connector-curvature="0" />
  <path
     d="m 27.721,67.122 -5.434,-2.245 c 0.963,2.005 2.629,3.684 4.841,4.606 4.782,1.992 10.295,-0.277 12.288,-5.063 0.965,-2.314 0.971,-4.869 0.014,-7.189 C 38.475,54.91 36.673,53.1 34.356,52.134 32.057,51.177 29.594,51.212 27.43,52.029 l 5.613,2.321 c 3.527,1.47 5.195,5.52 3.725,9.047 -1.467,3.528 -5.52,5.196 -9.047,3.725"
     id="path4"
     style="fill:#ffffff;fill-opacity:1"
     inkscape:connector-curvature="0" />
  <path
     d="m 69.796,32.835 c 0,-6.129 -4.986,-11.116 -11.116,-11.116 -6.129,0 -11.116,4.987 -11.116,11.116 0,6.13 4.987,11.115 11.116,11.115 6.13,0 11.116,-4.986 11.116,-11.115 M 50.348,32.816 c 0,-4.612 3.739,-8.35 8.351,-8.35 4.612,0 8.351,3.738 8.351,8.35 0,4.612 -3.739,8.35 -8.351,8.35 -4.612,0 -8.351,-3.739 -8.351,-8.35"
     id="path6"
     style="fill:#ffffff;fill-opacity:1"
     inkscape:connector-curvature="0" />
  <path
     d="m 135.564,30.267 -2.964,5.21 c -2.283,-1.595 -5.377,-2.555 -8.078,-2.555 -3.087,0 -4.997,1.278 -4.997,3.567 0,2.781 3.393,3.428 8.436,5.238 5.421,1.917 8.537,4.17 8.537,9.135 0,6.793 -5.342,10.608 -13.02,10.608 -3.742,0 -8.256,-0.966 -11.726,-3.077 l 2.162,-5.776 c 2.819,1.489 6.191,2.372 9.197,2.372 4.052,0 5.978,-1.495 5.978,-3.705 0,-2.529 -2.937,-3.289 -7.678,-4.859 -5.403,-1.804 -9.147,-4.171 -9.147,-9.666 0,-6.197 4.963,-9.756 12.104,-9.756 4.977,0 8.977,1.577 11.196,3.264"
     id="path8"
     style="fill:#ffffff;fill-opacity:1"
     inkscape:connector-curvature="0" />
  <path
     d="M 151.755,60.899 V 33.56 h -10.13 v -5.986 h 27.209 v 5.986 h -10.1 v 27.339 z"
     id="path10"
     style="fill:#ffffff;fill-opacity:1"
     inkscape:connector-curvature="0" />
  <path
     d="m 196.902,41.051 v 5.986 h -13.356 v 7.821 h 15.496 v 6.041 H 176.569 V 27.574 h 22.473 v 5.968 h -15.496 v 7.509 z"
     id="path12"
     style="fill:#ffffff;fill-opacity:1"
     inkscape:connector-curvature="0" />
  <path
     d="m 214.619,54.429 -2.206,6.471 h -7.316 l 12.495,-33.325 h 7.025 l 12.848,33.324 h -7.563 l -2.254,-6.471 h -13.029 z m 6.446,-18.905 -4.551,13.343 h 9.196 z"
     id="path14"
     style="fill:#ffffff;fill-opacity:1"
     inkscape:connector-curvature="0" />
  <path
     d="m 260.224,59.928 -8.972,-19.299 v 20.27 h -6.683 V 27.574 h 6.668 l 11.2,24.056 10.802,-24.056 h 6.726 v 33.325 h -6.682 V 40.455 l -9.12,19.473 z"
     id="path16"
     style="fill:#ffffff;fill-opacity:1"
     inkscape:connector-curvature="0" />
</svg>
